<?xml version="1.0" encoding="UTF-8"?>
<svg version="1.1" xmlns="http://www.w3.org/2000/svg" width="144" height="182">
<path d="M0 0 C4.92861828 1.02852009 9.90716845 1.65540095 14.89404297 2.33056641 C22.91021844 3.47174188 22.91021844 3.47174188 24.08154297 4.64306641 C24.17519303 6.3923536 24.19898735 8.14542894 24.19506836 9.8972168 C24.19495506 11.57884666 24.19495506 11.57884666 24.19483948 13.29444885 C24.18967819 14.51421921 24.18451691 15.73398956 24.17919922 16.99072266 C24.17778427 18.23228622 24.17636932 19.47384979 24.1749115 20.7530365 C24.17024888 24.05912131 24.16125794 27.36513787 24.15020752 30.67120361 C24.13999124 34.0426779 24.13541341 37.41415923 24.13037109 40.78564453 C24.11931692 47.40480415 24.10256033 54.02393134 24.08154297 60.64306641 C20.72492602 62.32137488 17.72018703 61.27838521 14.08154297 60.64306641 C9.60692318 51.69382684 13.08154297 40.64862042 13.08154297 30.64306641 C-13.31845703 30.64306641 -39.71845703 30.64306641 -66.91845703 30.64306641 C-66.91845703 40.21306641 -66.91845703 49.78306641 -66.91845703 59.64306641 C-74.79345703 61.89306641 -74.79345703 61.89306641 -77.91845703 60.64306641 C-77.94158619 53.35885092 -77.95937504 46.07464331 -77.9702692 38.7903986 C-77.97549678 35.40834828 -77.98259214 32.02632301 -77.99389648 28.64428711 C-78.0067997 24.75976863 -78.01168627 20.87526044 -78.01611328 16.99072266 C-78.02127457 15.7709523 -78.02643585 14.55118195 -78.03175354 13.29444885 C-78.03182907 12.17336227 -78.0319046 11.0522757 -78.03198242 9.8972168 C-78.03420303 8.90460342 -78.03642365 7.91199005 -78.03871155 6.88929749 C-77.91845703 4.64306641 -77.91845703 4.64306641 -76.91845703 3.64306641 C-75.51882269 3.3249212 -74.10650304 3.06223872 -72.69116211 2.82348633 C-71.33337898 2.59433281 -71.33337898 2.59433281 -69.94816589 2.36054993 C-23.60014982 -5.13806687 -23.60014982 -5.13806687 0 0 Z M-62.91845703 24.64306641 C-62.58845703 25.30306641 -62.25845703 25.96306641 -61.91845703 26.64306641 C-50.36845703 26.64306641 -38.81845703 26.64306641 -26.91845703 26.64306641 C-26.58845703 25.98306641 -26.25845703 25.32306641 -25.91845703 24.64306641 C-38.12845703 24.64306641 -50.33845703 24.64306641 -62.91845703 24.64306641 Z M-23.91845703 24.64306641 C-23.91845703 25.30306641 -23.91845703 25.96306641 -23.91845703 26.64306641 C-14.01845703 26.64306641 -4.11845703 26.64306641 6.08154297 26.64306641 C6.08154297 25.98306641 6.08154297 25.32306641 6.08154297 24.64306641 C-3.81845703 24.64306641 -13.71845703 24.64306641 -23.91845703 24.64306641 Z " fill="#C90D33" transform="translate(101.91845703125,107.35693359375)"/>
<path d="M0 0 C7.08793542 5.68335372 10.16984191 12.36732772 11.19140625 21.26953125 C10.87252062 39.04015753 -4.32206819 58.42837691 -15.24609375 71.45703125 C-15.73207031 72.08867188 -16.21804687 72.7203125 -16.71875 73.37109375 C-18.24609375 74.45703125 -18.24609375 74.45703125 -20.69921875 74.40625 C-32.3000897 70.08261251 -41.35997111 47.81542673 -46.6171875 37.05078125 C-50.25192469 29.03169681 -52.00624728 21.40395774 -49.44140625 12.73828125 C-45.98719201 5.01989909 -40.04120086 -1.33009511 -32.12109375 -4.54296875 C-21.0157961 -7.51864395 -9.50238968 -6.52772856 0 0 Z M-30.62109375 15.70703125 C-32.75893779 19.32492116 -32.90043755 21.31285383 -32.24609375 25.45703125 C-30.07596323 29.2140161 -27.29637416 31.86397105 -23.24609375 33.45703125 C-18.52822017 33.78618522 -15.11266509 33.10235033 -11.30859375 30.26953125 C-9.06181871 27.2057471 -7.8478759 25.2181697 -7.24609375 21.45703125 C-8.33260886 17.89567616 -9.4378269 15.35510552 -11.93359375 12.58203125 C-19.26893575 9.01348649 -24.80394593 10.1960491 -30.62109375 15.70703125 Z " fill="#C50C2D" transform="translate(95.24609375,20.54296875)"/>
<path d="M0 0 C27.06 0 54.12 0 82 0 C82 13.2 82 26.4 82 40 C81.67 40 81.34 40 81 40 C81 30.76 81 21.52 81 12 C54.6 12 28.2 12 1 12 C1 21.57 1 31.14 1 41 C0.67 41 0.34 41 0 41 C0 27.47 0 13.94 0 0 Z M5 6 C5.33 6.66 5.66 7.32 6 8 C17.55 8 29.1 8 41 8 C41.33 7.34 41.66 6.68 42 6 C29.79 6 17.58 6 5 6 Z M44 6 C44 6.66 44 7.32 44 8 C53.9 8 63.8 8 74 8 C74 7.34 74 6.68 74 6 C64.1 6 54.2 6 44 6 Z " fill="#AA122D" transform="translate(34,126)"/>
<path d="M0 0 C1.16015625 1.58203125 1.16015625 1.58203125 1.16015625 3.58203125 C1.92328125 3.60265625 2.68640625 3.62328125 3.47265625 3.64453125 C6.16015625 4.58203125 6.16015625 4.58203125 8.03515625 7.51953125 C9.71407626 12.13656127 9.40526616 16.87740711 8.16015625 21.58203125 C6.90625 23.859375 6.90625 23.859375 5.16015625 25.58203125 C2.890625 26.04296875 2.890625 26.04296875 0.34765625 25.95703125 C-0.48378906 25.94414062 -1.31523438 25.93125 -2.171875 25.91796875 C-4.83984375 25.58203125 -4.83984375 25.58203125 -7.65234375 24.57421875 C-11.48705417 23.38057114 -15.0548442 23.28809577 -19.02734375 23.33203125 C-19.73826172 23.32429688 -20.44917969 23.3165625 -21.18164062 23.30859375 C-24.93996406 23.32273608 -26.63883935 23.44802832 -29.83984375 25.58203125 C-32.25 25.84765625 -32.25 25.84765625 -34.90234375 25.83203125 C-35.78019531 25.8371875 -36.65804687 25.84234375 -37.5625 25.84765625 C-39.83984375 25.58203125 -39.83984375 25.58203125 -41.83984375 23.58203125 C-43.75879427 17.05759949 -43.33678942 10.82439543 -40.83984375 4.58203125 C-39.66421875 4.45828125 -39.66421875 4.45828125 -38.46484375 4.33203125 C-35.70303863 3.85988822 -35.70303863 3.85988822 -34.58984375 1.58203125 C-34.34234375 0.92203125 -34.09484375 0.26203125 -33.83984375 -0.41796875 C-28.85839265 -5.39941985 -5.01579692 -3.86567788 0 0 Z M-30.83984375 2.58203125 C-31.16984375 3.57203125 -31.49984375 4.56203125 -31.83984375 5.58203125 C-30.76955246 6.87748573 -30.76955246 6.87748573 -28.24780273 6.69555664 C-27.12188721 6.69031982 -25.99597168 6.68508301 -24.8359375 6.6796875 C-23.01352539 6.67485352 -23.01352539 6.67485352 -21.15429688 6.66992188 C-19.87490234 6.66154297 -18.59550781 6.65316406 -17.27734375 6.64453125 C-15.35245117 6.63776367 -15.35245117 6.63776367 -13.38867188 6.63085938 C-10.20568353 6.6190267 -7.02278613 6.60254193 -3.83984375 6.58203125 C-3.83984375 5.26203125 -3.83984375 3.94203125 -3.83984375 2.58203125 C-12.74984375 2.58203125 -21.65984375 2.58203125 -30.83984375 2.58203125 Z M-34.83984375 9.58203125 C-34.83984375 10.57203125 -34.83984375 11.56203125 -34.83984375 12.58203125 C-33.84984375 12.91203125 -32.85984375 13.24203125 -31.83984375 13.58203125 C-31.83984375 14.24203125 -31.83984375 14.90203125 -31.83984375 15.58203125 C-32.64421875 15.87078125 -33.44859375 16.15953125 -34.27734375 16.45703125 C-36.97249055 17.31465693 -36.97249055 17.31465693 -37.83984375 19.58203125 C-37.50984375 20.24203125 -37.17984375 20.90203125 -36.83984375 21.58203125 C-34.42338593 21.74890573 -34.42338593 21.74890573 -31.83984375 21.58203125 C-31.17984375 20.92203125 -30.51984375 20.26203125 -29.83984375 19.58203125 C-27.2578125 19.32324219 -27.2578125 19.32324219 -24.02734375 19.31640625 C-22.86976562 19.31382812 -21.7121875 19.31125 -20.51953125 19.30859375 C-19.30523437 19.31632812 -18.0909375 19.3240625 -16.83984375 19.33203125 C-15.62554687 19.32429688 -14.41125 19.3165625 -13.16015625 19.30859375 C-11.42378906 19.31246094 -11.42378906 19.31246094 -9.65234375 19.31640625 C-8.58628906 19.31866211 -7.52023438 19.32091797 -6.421875 19.32324219 C-3.83984375 19.58203125 -3.83984375 19.58203125 -1.83984375 21.58203125 C0.76296193 21.26161728 0.76296193 21.26161728 3.16015625 20.58203125 C3.16015625 19.26203125 3.16015625 17.94203125 3.16015625 16.58203125 C2.19078125 16.45828125 1.22140625 16.33453125 0.22265625 16.20703125 C-0.78796875 16.00078125 -1.79859375 15.79453125 -2.83984375 15.58203125 C-3.33484375 14.59203125 -3.33484375 14.59203125 -3.83984375 13.58203125 C-3.17984375 13.58203125 -2.51984375 13.58203125 -1.83984375 13.58203125 C-1.50984375 12.59203125 -1.17984375 11.60203125 -0.83984375 10.58203125 C-12.05984375 10.25203125 -23.27984375 9.92203125 -34.83984375 9.58203125 Z " fill="#821125" transform="translate(91.83984375,142.41796875)"/>
<path d="M0 0 C27.06 0 54.12 0 82 0 C82 13.2 82 26.4 82 40 C81.67 40 81.34 40 81 40 C81 30.76 81 21.52 81 12 C78.03 12 75.06 12 72 12 C72 11.67 72 11.34 72 11 C74.64 11 77.28 11 80 11 C80 10.01 80 9.02 80 8 C79.01 8 78.02 8 77 8 C77 7.34 77 6.68 77 6 C77.99 6 78.98 6 80 6 C80 5.01 80 4.02 80 3 C54.26 3 28.52 3 2 3 C2 3.99 2 4.98 2 6 C3.32 6.33 4.64 6.66 6 7 C4.68 7.33 3.36 7.66 2 8 C2 8.99 2 9.98 2 11 C13.88 11 25.76 11 38 11 C38 11.33 38 11.66 38 12 C25.79 12 13.58 12 1 12 C1 21.57 1 31.14 1 41 C0.67 41 0.34 41 0 41 C0 27.47 0 13.94 0 0 Z " fill="#2A0206" transform="translate(34,126)"/>
<path d="M0 0 C2.4375 0.375 2.4375 0.375 5 1 C6.61301773 4.22603545 6.12053599 7.74710038 6.09765625 11.2890625 C6.0962413 12.10748627 6.09482635 12.92591003 6.09336853 13.76913452 C6.0877629 16.38779325 6.07520948 19.00636704 6.0625 21.625 C6.05748572 23.39843627 6.05292269 25.17187387 6.04882812 26.9453125 C6.03779164 31.29690782 6.02052325 35.6484395 6 40 C3.69 40 1.38 40 -1 40 C-1.88140847 32.39785192 -2.1341502 24.83452743 -2.1875 17.1875 C-2.20683594 15.84522339 -2.20683594 15.84522339 -2.2265625 14.47583008 C-2.23435345 9.24956277 -1.70723983 4.94627191 0 0 Z " fill="#D20C35" transform="translate(27,127)"/>
<path d="M0 0 C-0.33 0.66 -0.66 1.32 -1 2 C-1.53463867 1.83701416 -2.06927734 1.67402832 -2.62011719 1.50610352 C-5.4937985 0.8949893 -8.13965754 0.8879395 -11.078125 0.90234375 C-12.64675293 0.90609009 -12.64675293 0.90609009 -14.24707031 0.90991211 C-16.22852051 0.92356812 -16.22852051 0.92356812 -18.25 0.9375 C-22.4575 0.958125 -26.665 0.97875 -31 1 C-17.14 1.495 -17.14 1.495 -3 2 C-3.33 2.66 -3.66 3.32 -4 4 C-12.91 3.67 -21.82 3.34 -31 3 C-31 3.99 -31 4.98 -31 6 C-15.16 6.495 -15.16 6.495 1 7 C-3.51934715 10.38951036 -4.91657068 10.40310656 -10.390625 10.51171875 C-11.09523865 10.52966995 -11.79985229 10.54762115 -12.52581787 10.56611633 C-14.76715179 10.62011858 -17.00827405 10.65408088 -19.25 10.6875 C-20.77346689 10.72068218 -22.29690589 10.75517269 -23.8203125 10.79101562 C-27.5466716 10.87583738 -31.27310463 10.94269724 -35 11 C-34.01 11.99 -33.02 12.98 -32 14 C-34.97 13.67 -37.94 13.34 -41 13 C-41 16.63 -41 20.26 -41 24 C-41.33 24 -41.66 24 -42 24 C-43.68072719 17.27709124 -43.56634962 11.41587404 -41 5 C-39.824375 4.87625 -39.824375 4.87625 -38.625 4.75 C-35.86319488 4.27785697 -35.86319488 4.27785697 -34.75 2 C-34.5025 1.34 -34.255 0.68 -34 0 C-28.74020397 -5.25979603 -5.96898915 -2.98449457 0 0 Z " fill="#810F23" transform="translate(92,142)"/>
<path d="M0 0 C0.33 0.66 0.66 1.32 1 2 C3.32156597 2.40729228 5.6568787 2.74438677 8 3 C7.67 3.99 7.34 4.98 7 6 C4.4375 7.1875 4.4375 7.1875 2 8 C2 8.99 2 9.98 2 11 C2.7425 10.67 3.485 10.34 4.25 10 C13.76922733 7.46153938 24.29979075 9.19643237 34 10 C34 10.33 34 10.66 34 11 C26.08 11 18.16 11 10 11 C9.67 12.32 9.34 13.64 9 15 C7.35425434 15.02688151 5.70838587 15.04634123 4.0625 15.0625 C3.14597656 15.07410156 2.22945312 15.08570313 1.28515625 15.09765625 C-1 15 -1 15 -2 14 C-2.07244053 11.98035801 -2.08377188 9.95832876 -2.0625 7.9375 C-2.05347656 6.83277344 -2.04445312 5.72804687 -2.03515625 4.58984375 C-2.02355469 3.73519531 -2.01195312 2.88054687 -2 2 C-1.34 2 -0.68 2 0 2 C0 1.34 0 0.68 0 0 Z " fill="#B91331" transform="translate(53,153)"/>
<path d="M0 0 C25.41 0 50.82 0 77 0 C77 0.33 77 0.66 77 1 C75.50218994 1.03758423 75.50218994 1.03758423 73.97412109 1.07592773 C70.25036981 1.17048308 66.52678426 1.270584 62.80322266 1.37231445 C61.19518933 1.41548205 59.58711552 1.45716901 57.97900391 1.49731445 C55.66035795 1.55546006 53.34191239 1.61902391 51.0234375 1.68359375 C50.31069672 1.70030624 49.59795593 1.71701874 48.86361694 1.73423767 C45.86662374 1.82211049 42.99543679 2.00081324 40.04101562 2.52734375 C36.09082208 3.14131089 32.30598026 3.01734154 28.3203125 2.87890625 C27.50754852 2.85529526 26.69478455 2.83168427 25.85739136 2.80735779 C23.27972728 2.73122314 20.70240253 2.64698527 18.125 2.5625 C16.36980787 2.50922895 14.61459954 2.45648895 12.859375 2.40429688 C8.57270472 2.27567661 4.28631991 2.13979197 0 2 C0 1.34 0 0.68 0 0 Z " fill="#CE0E37" transform="translate(36,135)"/>
<path d="M0 0 C0.33 0 0.66 0 1 0 C1.33 18.15 1.66 36.3 2 55 C4.31 55 6.62 55 9 55 C9 41.47 9 27.94 9 14 C9.33 14 9.66 14 10 14 C10 27.86 10 41.72 10 56 C5.545 56.495 5.545 56.495 1 57 C0 56 0 56 -0.12025452 53.75376892 C-0.11803391 52.76115555 -0.11581329 51.76854218 -0.11352539 50.74584961 C-0.11344986 49.62476303 -0.11337433 48.50367645 -0.11329651 47.34861755 C-0.10813522 46.1288472 -0.10297394 44.90907684 -0.09765625 43.65234375 C-0.0962413 42.41078018 -0.09482635 41.16921661 -0.09336853 39.89002991 C-0.08870591 36.58394509 -0.07971497 33.27792854 -0.06866455 29.97186279 C-0.05844827 26.6003885 -0.05387045 23.22890717 -0.04882812 19.85742188 C-0.03777395 13.23826225 -0.02101736 6.61913507 0 0 Z " fill="#721025" transform="translate(24,112)"/>
<path d="M0 0 C0.66 0 1.32 0 2 0 C2 0.66 2 1.32 2 2 C3.98 2 5.96 2 8 2 C8.04254356 3.99954746 8.04080783 6.00041636 8 8 C6.03177114 9.96822886 2.65191291 9.66248381 0 10 C2.97 10.33 5.94 10.66 9 11 C9 11.33 9 11.66 9 12 C7.45874525 12.05482724 5.91690094 12.09316134 4.375 12.125 C3.51648438 12.14820313 2.65796875 12.17140625 1.7734375 12.1953125 C-1 12 -1 12 -3.8203125 11.00390625 C-7.74320543 9.7653516 -11.16999194 9.74151085 -15.25 9.8125 C-15.96929687 9.81314453 -16.68859375 9.81378906 -17.4296875 9.81445312 C-21.343839 9.78508192 -21.343839 9.78508192 -25 11 C-25 10.01 -25 9.02 -25 8 C-21.7 7.67 -18.4 7.34 -15 7 C-18.63 6.67 -22.26 6.34 -26 6 C-26 5.67 -26 5.34 -26 5 C-21.70838953 4.94216158 -17.41687855 4.9064588 -13.125 4.875 C-11.90167969 4.85824219 -10.67835937 4.84148437 -9.41796875 4.82421875 C-8.25136719 4.81777344 -7.08476563 4.81132812 -5.8828125 4.8046875 C-4.80402832 4.79421387 -3.72524414 4.78374023 -2.61376953 4.77294922 C0 5 0 5 2 7 C3.32 7 4.64 7 6 7 C6.33 5.68 6.66 4.36 7 3 C5.02 3 3.04 3 1 3 C0.67 2.01 0.34 1.02 0 0 Z " fill="#6D1320" transform="translate(88,156)"/>
<path d="M0 0 C-0.33 0.66 -0.66 1.32 -1 2 C-1.53463867 1.83701416 -2.06927734 1.67402832 -2.62011719 1.50610352 C-5.4937985 0.8949893 -8.13965754 0.8879395 -11.078125 0.90234375 C-12.64675293 0.90609009 -12.64675293 0.90609009 -14.24707031 0.90991211 C-16.22852051 0.92356812 -16.22852051 0.92356812 -18.25 0.9375 C-22.4575 0.958125 -26.665 0.97875 -31 1 C-17.14 1.495 -17.14 1.495 -3 2 C-3.33 2.66 -3.66 3.32 -4 4 C-12.91 3.67 -21.82 3.34 -31 3 C-31 4.32 -31 5.64 -31 7 C-31.66 7 -32.32 7 -33 7 C-33 5.68 -33 4.36 -33 3 C-33.66 3 -34.32 3 -35 3 C-35 3.99 -35 4.98 -35 6 C-36.32 5.34 -37.64 4.68 -39 4 C-38.01 4 -37.02 4 -36 4 C-35.5359375 3.0409375 -35.5359375 3.0409375 -35.0625 2.0625 C-34 0 -34 0 -33 -1 C-23.73849228 -2.85230154 -8.5664325 -4.28321625 0 0 Z " fill="#610D1B" transform="translate(92,142)"/>
<path d="M0 0 C0 0.33 0 0.66 0 1 C-5.95347164 1.09375546 -11.60619902 0.78394047 -17.5 0 C-24.4231361 -0.85466326 -31.19292688 -1.18049218 -38.16601562 -1.01367188 C-42.89877896 -0.91497473 -47.32801915 -1.32885799 -52 -2 C-52 -2.33 -52 -2.66 -52 -3 C-34.81527353 -7.06284268 -17.10340149 -2.87315205 0 0 Z " fill="#861124" transform="translate(111,109)"/>
<path d="M0 0 C25.74 0 51.48 0 78 0 C77.01 0.33 76.02 0.66 75 1 C75 1.66 75 2.32 75 3 C74.01 3 73.02 3 72 3 C72 2.34 72 1.68 72 1 C62.1 1 52.2 1 42 1 C42 1.66 42 2.32 42 3 C41.01 2.67 40.02 2.34 39 2 C36.05282827 1.84565842 33.12501135 1.7424397 30.17578125 1.68359375 C29.31438034 1.66281265 28.45297943 1.64203156 27.56547546 1.62062073 C24.81456456 1.55525091 22.06355844 1.49629868 19.3125 1.4375 C17.44725579 1.39430283 15.5820212 1.35068815 13.71679688 1.30664062 C9.14462876 1.19958237 4.5723649 1.09827946 0 1 C0 0.67 0 0.34 0 0 Z " fill="#600B1A" transform="translate(36,131)"/>
<path d="M0 0 C0.99 0.33 1.98 0.66 3 1 C3.027193 2.58323688 3.04648306 4.16661062 3.0625 5.75 C3.07410156 6.63171875 3.08570312 7.5134375 3.09765625 8.421875 C3 11 3 11 2 15 C-1.3 15 -4.6 15 -8 15 C-8.33 14.34 -8.66 13.68 -9 13 C-6.36 12.67 -3.72 12.34 -1 12 C-0.67 10.02 -0.34 8.04 0 6 C-1.98 6 -3.96 6 -6 6 C-5.67 5.01 -5.34 4.02 -5 3 C-3.35 3 -1.7 3 0 3 C0 2.01 0 1.02 0 0 Z " fill="#CA1336" transform="translate(96,152)"/>
<path d="M0 0 C4.39577761 -0.05815112 8.79145598 -0.09364767 13.1875 -0.125 C14.43337891 -0.14175781 15.67925781 -0.15851563 16.96289062 -0.17578125 C18.16494141 -0.18222656 19.36699219 -0.18867188 20.60546875 -0.1953125 C22.26292114 -0.21102295 22.26292114 -0.21102295 23.95385742 -0.22705078 C27.03654165 0.00272371 29.21840962 0.6918151 32 2 C31.67 2.99 31.34 3.98 31 5 C30.34 4.67 29.68 4.34 29 4 C29 3.34 29 2.68 29 2 C19.76 2 10.52 2 1 2 C0.67 1.34 0.34 0.68 0 0 Z " fill="#CF1838" transform="translate(60,142)"/>
<path d="M0 0 C0.33 0 0.66 0 1 0 C1 12.87 1 25.74 1 39 C0.67 39 0.34 39 0 39 C0 29.76 0 20.52 0 11 C-2.97 11 -5.94 11 -9 11 C-9 10.67 -9 10.34 -9 10 C-6.36 10 -3.72 10 -1 10 C-1 9.01 -1 8.02 -1 7 C-1.99 7 -2.98 7 -4 7 C-4 6.34 -4 5.68 -4 5 C-3.01 5 -2.02 5 -1 5 C-0.67 3.35 -0.34 1.7 0 0 Z " fill="#2C0C0E" transform="translate(115,127)"/>
<path d="M0 0 C-3.34799085 3.06192834 -5.59977035 3.35882691 -10.078125 3.29296875 C-11.23828125 3.28330078 -12.3984375 3.27363281 -13.59375 3.26367188 C-14.8003125 3.23853516 -16.006875 3.21339844 -17.25 3.1875 C-19.08304688 3.16719727 -19.08304688 3.16719727 -20.953125 3.14648438 C-23.96919498 3.1111398 -26.98437487 3.0617956 -30 3 C-30.33 2.34 -30.66 1.68 -31 1 C-26.77089482 0.83174865 -22.54170681 0.66567565 -18.3125 0.5 C-17.11431641 0.45230469 -15.91613281 0.40460938 -14.68164062 0.35546875 C-13.52470703 0.31035156 -12.36777344 0.26523438 -11.17578125 0.21875 C-9.58117065 0.1559082 -9.58117065 0.1559082 -7.9543457 0.09179688 C-5.30023521 0.00932885 -2.65511397 -0.01717131 0 0 Z " fill="#D01B3B" transform="translate(93,149)"/>
<path d="M0 0 C11.55 0 23.1 0 35 0 C35.495 1.485 35.495 1.485 36 3 C34.35 3.33 32.7 3.66 31 4 C31 3.34 31 2.68 31 2 C20.77 1.67 10.54 1.34 0 1 C0 0.67 0 0.34 0 0 Z " fill="#52141D" transform="translate(59,152)"/>
<path d="M0 0 C0.33 0 0.66 0 1 0 C0.67 2.31 0.34 4.62 0 7 C-0.99 6.67 -1.98 6.34 -3 6 C-3.268125 6.61875 -3.53625 7.2375 -3.8125 7.875 C-5 10 -5 10 -8 12 C-8.33 11.34 -8.66 10.68 -9 10 C-8.34 9.67 -7.68 9.34 -7 9 C-9.31 8.67 -11.62 8.34 -14 8 C-14 7.67 -14 7.34 -14 7 C-13.40832031 6.91363281 -12.81664063 6.82726563 -12.20703125 6.73828125 C-6.61329847 5.74363708 -3.78041004 4.48923692 0 0 Z " fill="#941125" transform="translate(86,47)"/>
<path d="M0 0 C0.33 0.66 0.66 1.32 1 2 C3.32156597 2.40729228 5.6568787 2.74438677 8 3 C8 3.66 8 4.32 8 5 C5.36 5 2.72 5 0 5 C0 6.32 0 7.64 0 9 C-0.66 9 -1.32 9 -2 9 C-2 6.69 -2 4.38 -2 2 C-1.34 2 -0.68 2 0 2 C0 1.34 0 0.68 0 0 Z " fill="#C71034" transform="translate(53,153)"/>
<path d="M0 0 C1.32 0.33 2.64 0.66 4 1 C2.44499019 4.81684226 -0.03595495 7.19195732 -3 10 C-3.33 8.68 -3.66 7.36 -4 6 C-3.01 6.33 -2.02 6.66 -1 7 C-1.20625 6.401875 -1.4125 5.80375 -1.625 5.1875 C-2 3 -2 3 0 0 Z " fill="#A21126" transform="translate(81,83)"/>
<path d="M0 0 C2.475 0.495 2.475 0.495 5 1 C5.05395478 2.62463842 5.09277195 4.24978541 5.125 5.875 C5.14820312 6.77992187 5.17140625 7.68484375 5.1953125 8.6171875 C5 11 5 11 3 13 C2.92652344 12.09507813 2.92652344 12.09507813 2.8515625 11.171875 C2.77679688 10.37265625 2.70203125 9.5734375 2.625 8.75 C2.55539063 7.96109375 2.48578125 7.1721875 2.4140625 6.359375 C1.98492887 3.914123 1.21399362 2.15163097 0 0 Z " fill="#7B0E1E" transform="translate(84,34)"/>
<path d="M0 0 C0.66 0 1.32 0 2 0 C1.42365861 4.75481646 -0.55068521 7.97048212 -3 12 C-3.33 12 -3.66 12 -4 12 C-4.25 6.375 -4.25 6.375 -2 3 C-1.34 3 -0.68 3 0 3 C0 2.01 0 1.02 0 0 Z " fill="#851123" transform="translate(100,55)"/>
<path d="M0 0 C2.31 0 4.62 0 7 0 C6.360625 0.2475 5.72125 0.495 5.0625 0.75 C2.81258459 1.81562433 2.81258459 1.81562433 2.25 4.125 C2.1675 4.74375 2.085 5.3625 2 6 C3.98 5.67 5.96 5.34 8 5 C8 5.66 8 6.32 8 7 C5.66705225 7.04241723 3.33297433 7.04092937 1 7 C0 6 0 6 -0.0625 2.9375 C-0.041875 1.968125 -0.02125 0.99875 0 0 Z " fill="#540C16" transform="translate(53,158)"/>
<path d="M0 0 C2.04119788 1.61594832 4.04072937 3.2856382 6 5 C6 5.66 6 6.32 6 7 C3.6875 6.8125 3.6875 6.8125 1 6 C-0.8125 3.4375 -0.8125 3.4375 -2 1 C-1.34 0.67 -0.68 0.34 0 0 Z " fill="#921326" transform="translate(71,88)"/>
<path d="M0 0 C2.31 0 4.62 0 7 0 C7 0.99 7 1.98 7 3 C4.69 3.66 2.38 4.32 0 5 C0 3.35 0 1.7 0 0 Z " fill="#AB0E2C" transform="translate(51,147)"/>
<path d="M0 0 C-3.42346555 3.14958831 -6.44262737 3.56179109 -11 4 C-7.39987093 0.15158617 -5.25169925 -1.6298377 0 0 Z " fill="#7F1322" transform="translate(68,17)"/>
<path d="M0 0 C0 0.99 0 1.98 0 3 C0.99 3.33 1.98 3.66 3 4 C2.01 4.495 2.01 4.495 1 5 C0.1646875 4.566875 0.1646875 4.566875 -0.6875 4.125 C-3.72942835 2.64514296 -6.66073437 2.38529988 -10 2 C-10 1.67 -10 1.34 -10 1 C-3.375 0 -3.375 0 0 0 Z " fill="#CC1633" transform="translate(82,28)"/>
<path d="M0 0 C0.33 0 0.66 0 1 0 C1 2.64 1 5.28 1 8 C-0.65 7.67 -2.3 7.34 -4 7 C-4 6.34 -4 5.68 -4 5 C-3.01 5 -2.02 5 -1 5 C-0.67 3.35 -0.34 1.7 0 0 Z " fill="#1D0506" transform="translate(115,127)"/>
<path d="M0 0 C0.66 0 1.32 0 2 0 C2 1.65 2 3.3 2 5 C0.35 5.33 -1.3 5.66 -3 6 C-2 4 -1 2 0 0 Z " fill="#D5062F" transform="translate(83,53)"/>
<path d="M0 0 C0.33 0.99 0.66 1.98 1 3 C0.34 3 -0.32 3 -1 3 C-1.33 4.32 -1.66 5.64 -2 7 C-2.66 6.34 -3.32 5.68 -4 5 C-3.8125 2.9375 -3.8125 2.9375 -3 1 C-2.01 0.67 -1.02 0.34 0 0 Z " fill="#D4092F" transform="translate(99,55)"/>
<path d="M0 0 C1.98 0.495 1.98 0.495 4 1 C4 1.66 4 2.32 4 3 C4.66 3 5.32 3 6 3 C6 3.99 6 4.98 6 6 C3 5 3 5 1 3 C0.34 2.67 -0.32 2.34 -1 2 C-0.67 1.34 -0.34 0.68 0 0 Z " fill="#D6052F" transform="translate(90,21)"/>
<path d="M0 0 C-0.99 0.33 -1.98 0.66 -3 1 C-3 1.66 -3 2.32 -3 3 C-4.32 3 -5.64 3 -7 3 C-7.33 2.01 -7.66 1.02 -8 0 C-2.25 -1.125 -2.25 -1.125 0 0 Z " fill="#D40930" transform="translate(80,56)"/>
</svg>
